<svg width="719" height="306" viewBox="0 0 719 306" fill="none" xmlns="http://www.w3.org/2000/svg">
<path fill-rule="evenodd" clip-rule="evenodd" d="M50.667 2.96599C48.81 4.42599 47.193 7.72898 45.032 14.478C43.364 19.683 42 24.542 42 25.276C42 26.379 43.252 26.364 49.25 25.186C59.459 23.182 82.862 24.064 93 26.834C97.125 27.961 101.276 28.891 102.224 28.901C105.495 28.933 107.422 22.126 109.364 3.66798C109.71 0.383984 109.828 0.396984 102.5 2.91798C95.013 5.49398 85.539 5.49597 74.813 2.92497C63.588 0.233972 54.119 0.249988 50.667 2.96599ZM308.998 39.403C285.38 44.115 268.665 59.478 256.477 87.674C250.709 101.019 248.723 112.018 249.302 127.418C249.861 142.271 251.823 149.362 257.53 157.153C264.51 166.684 275.288 170.918 292.568 170.918C320.852 170.918 342.593 156.468 356.514 128.418C363.506 114.328 366.275 103.143 366.291 88.918C366.323 61.676 354.006 42.712 333.789 38.878C327.045 37.599 316.972 37.812 308.998 39.403ZM61.854 41.41C37.379 46.067 22.416 60.032 19.002 81.406C15.956 100.47 23.375 109.257 48.921 116.847C62.1 120.762 65.766 122.564 67.544 126.003C69.88 130.52 69.353 133.765 65.69 137.428C61.55 141.568 55.396 142.705 46.255 141.021C38.705 139.63 26.076 134.821 20.638 131.266C18.514 129.878 16.447 129.119 16.044 129.58C13.65 132.321 0 152.92 0 153.792C0 155.264 11.049 162.608 17.668 165.535C29.633 170.826 37.498 172.367 52.5 172.358C65.215 172.351 67.234 172.095 74.5 169.569C87.69 164.983 96.759 158.645 104.205 148.808C117.308 131.499 117.784 110.479 105.339 98.74C100.795 94.453 92.988 91.092 81.132 88.317C72.81 86.369 69.459 85.104 67.543 83.188C61.822 77.468 66.208 68.759 75.512 67.364C80.4 66.631 89.965 69.066 100.378 73.694L106.256 76.306L109.378 72.807C116.766 64.525 127.072 50.596 126.319 49.91C124.998 48.706 116.308 46.111 104.5 43.393C90.504 40.172 72.713 39.344 61.854 41.41ZM320.449 71.918C324.635 79.062 322.211 107.62 316.015 124.156C309.567 141.365 298.42 147.9 292.553 137.913C290.81 134.945 290.517 132.833 290.61 123.918C290.858 100.357 299.882 76.898 311.439 69.771C315.609 67.2 318.022 67.775 320.449 71.918ZM487.339 170.96C482.261 171.965 471.807 176.05 462.775 180.56C459.076 182.407 455.419 183.918 454.647 183.918C452.159 183.918 450.769 181.054 450.769 175.927C450.769 173.172 450.541 170.918 450.263 170.918C449.985 170.918 445.183 171.597 439.593 172.427C428.451 174.082 416.604 177.172 414.405 178.997C413.408 179.824 413 182.538 413 188.341C413 201.283 411.13 222.126 408.505 238.429C406.328 251.957 397.799 294.821 396.42 299.168C395.904 300.797 397.323 300.918 416.914 300.918C437.922 300.918 437.963 300.914 438.477 298.668C439.294 295.099 448.753 237.312 450.057 227.918C451.422 218.092 453.893 212.954 458.926 209.478C469.2 202.383 480.993 208.076 480.998 220.133C481 224.507 477.029 243.512 469.456 275.367C466.455 287.989 464 298.911 464 299.638C464 300.699 467.989 300.906 484.223 300.689L504.446 300.418L506.73 290.918C511.729 270.125 517.948 240.837 519.576 230.418C522.149 213.953 521.993 197.219 519.183 188.15C514.515 173.082 504.35 167.595 487.339 170.96ZM342 172.417C318.232 177.211 301.992 192.475 289.919 221.37C281.364 241.844 278.689 262.212 282.582 277.236C286.341 291.739 296.619 301.708 311.139 304.934C320.012 306.905 341.374 305.693 352.5 302.588C365.182 299.048 378.787 293.988 380.662 292.114C383.731 289.044 379.836 268.516 375.501 264.919C374.371 263.981 372.261 264.573 365.288 267.785C353.619 273.159 345.051 275.291 337.772 274.631C326.439 273.603 321.757 268.267 322.229 256.918L322.5 250.418L337 250.74C355.256 251.145 365.528 249.444 375.959 244.289C388.85 237.918 397.208 227.373 400.116 213.811C403.37 198.639 395.101 181.831 381.402 175.772C370.932 171.14 355.039 169.787 342 172.417ZM666.5 171.842C652.72 173.579 639.282 179.457 629.829 187.883C619.26 197.303 607.21 218.197 602.907 234.564C595.719 261.903 603.09 291.187 619.266 299.556C625.296 302.676 632.372 303.894 644.54 303.906C665.331 303.927 677.885 298.996 691.589 285.427C722.066 255.253 727.934 204.948 703.795 180.808C700.848 177.861 697.07 175.34 693.729 174.09C687.542 171.775 675.148 170.751 666.5 171.842ZM672.678 205.668C675.828 213.165 672.516 243.447 666.904 258.444C662.309 270.727 654.51 278.203 648.625 275.966C642.46 273.622 639.999 263.681 641.905 248.819C645.036 224.41 657.324 201.918 667.529 201.918C670.711 201.918 671.274 202.328 672.678 205.668ZM357.75 207.456C362.173 212.515 360.121 218.692 352.721 222.596C348.186 224.988 331.272 225.791 330.452 223.653C329.215 220.431 335.549 209.57 340.592 206.266C346.434 202.438 353.809 202.949 357.75 207.456Z" fill="#FFF2F2"/>
<path d="M181.602 5.066C182.512 3.772 184.661 2.071 186.378 1.286C190.443 -0.573997 201.464 0.100999 213.5 2.945C225.572 5.799 240.019 5.388 247.78 1.971C250.685 0.692 253.225 -0.180995 253.425 0.0320051C253.983 0.625005 251.226 20.899 249.972 25.418C247.749 33.436 247.781 33.426 234.339 30.345C219.191 26.875 199.405 26.061 184.017 28.277C178.252 29.107 173.394 29.645 173.222 29.473C172.605 28.857 179.984 7.368 181.602 5.066Z" fill="#EE2A2C"/>
<path d="M147.814 56.84C156.43 49.238 171.711 42.972 186.5 40.977C195.302 39.79 212.929 40.457 223.888 42.392C233.08 44.015 244.101 46.686 244.899 47.484C245.543 48.128 238.775 83.499 229.83 126.232C219.816 174.072 220.162 171.823 222.529 173.608C224.033 174.741 226.042 174.944 231 174.463C253.85 172.248 257.482 172.621 264.694 177.924C276.304 186.462 282.534 206.023 280.04 226.098C276.271 256.43 262.821 281.242 243.208 294.045C230.929 302.061 217.244 305.918 201.083 305.918C192.016 305.918 178.265 304.318 176.161 303.018C175.369 302.528 175.95 300.119 178.09 295.027C179.774 291.017 180.956 287.541 180.717 287.301C180.477 287.062 178.092 288.675 175.416 290.886C163.708 300.561 149.898 305.374 135.745 304.711C126.164 304.263 122.307 302.478 120.606 297.706C118.967 293.105 120.613 289.964 125.787 287.82C139.801 282.012 146.854 276.064 154.016 264.008C162.559 249.629 169.217 226.402 173.345 196.588L175.669 179.8L181.085 175.176C190.035 167.534 197.736 159.372 201.311 153.738C207.371 144.189 210.737 131.678 204.859 140.55C200.761 146.735 189.002 158.014 181.237 163.206C167.573 172.342 157.259 175.464 148.621 173.079C145.004 172.08 144.562 172.202 141.8 174.965C134.759 182.005 127 175.363 127 162.294C127 160.018 125.783 155.065 124.295 151.287C121.853 145.084 121.595 143.206 121.638 131.918C121.762 98.824 131.327 71.388 147.814 56.84Z" fill="#EE2A2C"/>
<path d="M537.077 186.418L536.482 190.918C536.154 193.393 535.656 196.206 535.376 197.168C534.942 198.654 535.555 198.918 539.433 198.918C542.77 198.918 544 199.311 544 200.378C544 201.181 541.346 212.543 538.102 225.628C527.906 266.758 526.344 277.414 529.071 287.233C530.546 292.546 536.623 298.288 543.13 300.517C552.715 303.8 574.309 302.61 591.282 297.864L595.064 296.806L594.782 285.612L594.5 274.418L589.286 274.757C586.418 274.944 582.487 274.574 580.551 273.935C570.934 270.761 570.604 263.134 578.574 228.136C581.64 214.673 584.554 202.591 585.05 201.288C585.905 199.037 586.402 198.918 594.969 198.918H603.988L609.994 186.267C613.297 179.31 616 173.46 616 173.267C616 173.075 611.05 172.918 605 172.918C598.597 172.918 594 172.515 594 171.953C594 171.422 596.696 163.693 599.991 154.777C603.286 145.862 605.845 138.43 605.677 138.262C605.302 137.886 572.09 139.772 566.302 140.498L562.105 141.025L558.333 156.971L554.561 172.918H546.28C538.115 172.918 538 172.953 538 175.418L537.077 186.418Z" fill="#FFF2F2"/>
</svg>
