<svg width="903" height="323" viewBox="0 0 903 323" fill="none" xmlns="http://www.w3.org/2000/svg">
<path fill-rule="evenodd" clip-rule="evenodd" d="M756.03 0.25055C755.205 0.45055 751.155 1.16155 747.03 1.83255C699.338 9.58555 662.192 51.5136 659.357 100.795C657.09 140.202 678.037 178.513 712.779 198.502L721.107 203.294L720.512 207.794C720.184 210.269 719.686 213.082 719.406 214.044C718.972 215.53 719.585 215.794 723.463 215.794C726.8 215.794 728.03 216.187 728.03 217.254C728.03 218.057 725.376 229.419 722.132 242.504C711.936 283.634 710.374 294.29 713.101 304.109C714.576 309.422 720.653 315.164 727.16 317.393C736.745 320.676 758.339 319.486 775.312 314.74L779.094 313.682L778.812 302.488L778.53 291.294L773.316 291.633C770.448 291.82 766.517 291.45 764.581 290.811C754.964 287.637 754.634 280.01 762.604 245.012C765.67 231.549 768.584 219.467 769.08 218.164C769.935 215.913 770.432 215.794 778.999 215.794H788.018L794.024 203.143C797.327 196.186 800.03 190.336 800.03 190.143C800.03 189.951 795.08 189.794 789.03 189.794C782.627 189.794 778.03 189.391 778.03 188.829C778.03 188.298 780.726 180.569 784.021 171.653C787.316 162.738 789.875 155.306 789.707 155.138C789.332 154.762 756.12 156.648 750.332 157.374L746.135 157.901L742.363 173.847L738.591 189.794H730.31C722.145 189.794 722.03 189.829 722.03 192.294C722.03 195.409 721.752 195.401 716.118 192.13C694.367 179.502 676.864 157.19 670.068 133.427C657.861 90.7405 676.818 43.4425 714.991 21.3485C732.098 11.4475 747.017 7.43655 766.53 7.49255C777.29 7.52355 781.253 7.98354 789.53 10.1625C800.7 13.1035 812.78 18.5385 822.236 24.8795C830.172 30.2005 843.597 43.8546 847.53 50.6046C849.18 53.4366 851.122 55.7626 851.846 55.7736C854.021 55.8066 857.03 53.8165 857.03 52.3445C857.03 49.9685 845.673 35.5835 838.437 28.7935C824.668 15.8735 806.117 6.15256 787.645 2.17856C781.017 0.752559 759.405 -0.56545 756.03 0.25055ZM234.697 19.8416C232.84 21.3016 231.223 24.6045 229.062 31.3535C227.394 36.5585 226.03 41.4176 226.03 42.1516C226.03 43.2546 227.282 43.2396 233.28 42.0616C243.489 40.0576 266.892 40.9395 277.03 43.7095C281.155 44.8365 285.306 45.7666 286.254 45.7766C289.525 45.8086 291.452 39.0015 293.394 20.5435C293.74 17.2595 293.858 17.2725 286.53 19.7935C279.043 22.3695 269.569 22.3715 258.843 19.8005C247.618 17.1095 238.149 17.1256 234.697 19.8416ZM767.03 29.2935C767.03 34.4045 767.351 35.7935 768.53 35.7935C769.709 35.7935 770.03 34.4045 770.03 29.2935C770.03 24.1825 769.709 22.7935 768.53 22.7935C767.351 22.7935 767.03 24.1825 767.03 29.2935ZM823.117 51.2046C820.741 53.6256 819.101 56.0986 819.472 56.7006C820.618 58.5536 821.653 57.9596 825.536 53.2206C830.654 46.9746 828.792 45.4226 823.117 51.2046ZM708.03 49.0905C708.03 49.8035 709.829 52.1445 712.029 54.2925C717.401 59.5385 719.202 57.8275 714.396 52.0435C710.93 47.8725 708.03 46.5275 708.03 49.0905ZM493.028 56.2785C469.41 60.9905 452.695 76.3536 440.507 104.55C434.739 117.895 432.753 128.894 433.332 144.294C433.891 159.147 435.853 166.238 441.56 174.029C448.54 183.56 459.318 187.794 476.598 187.794C504.882 187.794 526.623 173.344 540.544 145.294C547.536 131.204 550.305 120.019 550.321 105.794C550.353 78.5515 538.036 59.5875 517.819 55.7535C511.075 54.4745 501.002 54.6875 493.028 56.2785ZM245.884 58.2856C221.409 62.9426 206.446 76.9076 203.032 98.2816C199.986 117.346 207.405 126.133 232.951 133.723C246.13 137.638 249.796 139.44 251.574 142.879C253.91 147.396 253.383 150.641 249.72 154.304C245.58 158.444 239.426 159.581 230.285 157.897C222.735 156.506 210.106 151.697 204.668 148.142C202.544 146.754 200.477 145.995 200.074 146.456C197.68 149.197 184.03 169.796 184.03 170.668C184.03 172.14 195.079 179.484 201.698 182.411C213.663 187.702 221.528 189.243 236.53 189.234C249.245 189.227 251.264 188.971 258.53 186.445C271.72 181.859 280.789 175.521 288.235 165.684C301.338 148.375 301.814 127.355 289.369 115.616C284.825 111.329 277.018 107.968 265.162 105.193C256.84 103.245 253.489 101.98 251.573 100.064C245.852 94.3435 250.238 85.6346 259.542 84.2396C264.43 83.5066 273.995 85.9415 284.408 90.5695L290.286 93.1815L293.408 89.6826C300.796 81.4006 311.102 67.4716 310.349 66.7856C309.028 65.5816 300.338 62.9866 288.53 60.2686C274.534 57.0476 256.743 56.2196 245.884 58.2856ZM504.479 88.7935C508.665 95.9375 506.241 124.496 500.045 141.032C493.597 158.241 482.45 164.776 476.583 154.789C474.84 151.821 474.547 149.709 474.64 140.794C474.888 117.233 483.912 93.7735 495.469 86.6465C499.639 84.0755 502.052 84.6505 504.479 88.7935ZM841.03 108.044C841.03 109.516 841.982 109.794 847.03 109.794C852.488 109.794 853.536 109.294 852.78 107.053C852.642 106.646 849.943 106.308 846.78 106.303C841.968 106.295 841.031 106.579 841.03 108.044ZM683.276 108.044C683.532 108.818 686.039 109.407 689.859 109.592C694.891 109.834 696.03 109.604 696.03 108.342C696.03 107.101 694.722 106.794 689.447 106.794C684.627 106.794 682.974 107.129 683.276 108.044ZM711.065 163.259C707.302 167.092 706.933 167.82 708.455 168.403C709.759 168.904 711.227 167.925 714.023 164.689C717.471 160.698 718.167 158.794 716.179 158.794C715.776 158.794 713.475 160.803 711.065 163.259ZM819.03 160.091C819.03 161.712 826.185 168.794 827.822 168.794C829.802 168.794 829.229 167.386 825.452 162.974C821.926 158.855 819.03 157.555 819.03 160.091ZM671.369 187.836C666.291 188.841 655.837 192.926 646.805 197.436C643.106 199.283 639.449 200.794 638.677 200.794C636.189 200.794 634.799 197.93 634.799 192.803C634.799 190.048 634.571 187.794 634.293 187.794C634.015 187.794 629.213 188.473 623.623 189.303C612.481 190.958 600.634 194.048 598.435 195.873C597.438 196.7 597.03 199.414 597.03 205.217C597.03 218.159 595.16 239.002 592.535 255.305C590.358 268.833 581.829 311.697 580.45 316.044C579.934 317.673 581.353 317.794 600.944 317.794C621.952 317.794 621.993 317.79 622.507 315.544C623.324 311.975 632.783 254.188 634.087 244.794C635.452 234.968 637.923 229.83 642.956 226.354C653.23 219.259 665.023 224.952 665.028 237.009C665.03 241.383 661.059 260.388 653.486 292.243C650.485 304.865 648.03 315.787 648.03 316.514C648.03 317.575 652.019 317.782 668.253 317.565L688.476 317.294L690.76 307.794C695.759 287.001 701.978 257.713 703.606 247.294C706.179 230.829 706.023 214.095 703.213 205.026C698.545 189.958 688.38 184.471 671.369 187.836ZM526.03 189.293C502.262 194.087 486.022 209.351 473.949 238.246C465.394 258.72 462.719 279.088 466.612 294.112C470.371 308.615 480.649 318.584 495.169 321.81C504.042 323.781 525.404 322.569 536.53 319.464C549.212 315.924 562.817 310.864 564.692 308.99C567.761 305.92 563.866 285.392 559.531 281.795C558.401 280.857 556.291 281.449 549.318 284.661C537.649 290.035 529.081 292.167 521.802 291.507C510.469 290.479 505.787 285.143 506.259 273.794L506.53 267.294L521.03 267.616C539.286 268.021 549.558 266.32 559.989 261.165C572.88 254.794 581.238 244.249 584.146 230.687C587.4 215.515 579.131 198.707 565.432 192.648C554.962 188.016 539.069 186.663 526.03 189.293ZM850.53 188.718C836.75 190.455 823.312 196.333 813.859 204.759C803.29 214.179 791.24 235.073 786.937 251.44C779.749 278.779 787.12 308.063 803.296 316.432C809.326 319.552 816.402 320.77 828.57 320.782C849.361 320.803 861.915 315.872 875.619 302.303C906.096 272.129 911.964 221.824 887.825 197.684C884.878 194.737 881.1 192.216 877.759 190.966C871.572 188.651 859.178 187.627 850.53 188.718ZM856.708 222.544C859.858 230.041 856.546 260.323 850.934 275.32C846.339 287.603 838.54 295.079 832.655 292.842C826.49 290.498 824.029 280.557 825.935 265.695C829.066 241.286 841.354 218.794 851.559 218.794C854.741 218.794 855.304 219.204 856.708 222.544ZM541.78 224.332C546.203 229.391 544.151 235.568 536.751 239.472C532.216 241.864 515.302 242.667 514.482 240.529C513.245 237.307 519.579 226.446 524.622 223.142C530.464 219.314 537.839 219.825 541.78 224.332ZM123.382 225.876C110.343 229.696 106.694 258.219 118.552 263.622C126.103 267.062 136.395 261.602 137.273 253.69C137.713 249.724 134.426 250.157 132.448 254.326C129.061 261.464 121.499 262.492 117.483 256.362C115.357 253.118 115.299 243.479 117.375 238.511C121.626 228.337 132.381 226.377 134.637 235.364C135.417 238.471 139.03 238.746 139.03 235.698C139.03 233.136 136.392 228.501 134.131 227.089C131.444 225.411 126.769 224.884 123.382 225.876ZM277.395 225.82C269.247 227.572 263.78 236.221 263.78 247.355C263.78 258.704 269.255 265.339 277.894 264.459C283.68 263.869 286.953 261.32 290.28 254.814C294.766 246.041 293.818 233.42 288.306 228.514C285.59 226.096 281.176 225.007 277.395 225.82ZM147.566 227.044C147.345 227.732 146 235.494 144.577 244.294C143.153 253.094 141.815 261.082 141.603 262.044C141.253 263.634 142.298 263.794 153.007 263.794C163.956 263.794 164.834 263.651 165.32 261.794C165.817 259.893 165.35 259.794 155.917 259.794C146.136 259.794 145.999 259.761 146.515 257.544C146.803 256.307 147.393 253.494 147.827 251.294L148.615 247.294L157.215 247.007C164.789 246.754 165.878 246.485 166.33 244.757C166.811 242.914 166.294 242.794 157.891 242.794H148.939L149.64 239.044C151.384 229.716 150.628 230.327 160.85 230.006C169.207 229.745 170.03 229.543 170.03 227.756C170.03 225.925 169.293 225.794 158.999 225.794C151.054 225.794 147.855 226.144 147.566 227.044ZM176.651 228.487C176.342 230.031 174.902 238.269 173.453 246.794C172.003 255.319 170.613 262.631 170.364 263.044C170.116 263.457 171.015 263.794 172.364 263.794C175.047 263.794 175.493 262.203 178.177 243.044C178.813 238.506 179.602 234.798 179.932 234.804C180.261 234.809 182.823 241.221 185.625 249.054C189.778 260.659 191.104 263.351 192.792 263.603C195.091 263.945 195.137 263.783 199.011 241.869C201.543 227.54 201.577 225.543 199.28 225.98C197.852 226.251 197.051 229.068 194.922 241.303C193.488 249.548 192.043 255.619 191.711 254.794C191.379 253.969 189.789 249.469 188.178 244.794C182.394 228.013 181.594 226.311 179.345 225.987C177.702 225.75 177.085 226.322 176.651 228.487ZM206.697 226.461C206.33 226.827 206.03 227.727 206.03 228.461C206.03 229.394 207.53 229.794 211.03 229.794C213.78 229.794 216.03 230.15 216.03 230.584C216.03 231.868 210.987 260.135 210.417 262.044C210.023 263.367 210.476 263.794 212.275 263.794C214.569 263.794 214.759 263.194 217.592 247.044L220.53 230.294L225.78 229.992C230.213 229.737 231.03 229.386 231.03 227.742C231.03 225.921 230.258 225.794 219.197 225.794C212.688 225.794 207.063 226.094 206.697 226.461ZM236.03 226.316C236.03 226.602 234.68 234.468 233.03 243.794C229.491 263.8 229.491 263.794 231.917 263.794C233.461 263.794 234.022 262.568 235.005 257.044C236.968 246.016 236.666 246.483 241.383 247.216C246.336 247.986 247.316 249.138 250.079 257.44C251.892 262.89 252.534 263.794 254.59 263.794H256.987L254.393 256.544C252.966 252.557 251.351 248.739 250.805 248.061C250.091 247.173 250.474 246.574 252.171 245.925C260.323 242.809 261.938 229.611 254.513 226.788C251.845 225.773 236.03 225.369 236.03 226.316ZM253.096 230.829C255.775 232.263 255.644 237.511 252.856 240.48C251.019 242.434 249.68 242.794 244.242 242.794H237.803L238.473 238.044C239.651 229.703 239.572 229.794 245.663 229.794C248.687 229.794 252.032 230.26 253.096 230.829ZM285.509 232.182C288.614 235.287 289.618 240.958 288.233 247.564C286.893 253.948 284.12 258.1 280.075 259.775C273.205 262.621 268.024 257.457 268.056 247.794C268.1 234.444 278.483 225.156 285.509 232.182ZM204.746 270.698C203.802 272.296 203.03 273.871 203.03 274.198C203.03 275.609 205.844 274.613 207.707 272.544C211.15 268.719 211.364 267.794 208.805 267.794C207.278 267.794 205.863 268.807 204.746 270.698ZM0.000153483 278.544C-0.0158465 278.957 1.22115 287.525 2.75015 297.586C5.50615 315.719 5.55115 315.875 7.95915 315.586C10.0572 315.334 11.5232 312.849 18.7092 297.369C23.2862 287.511 27.0302 279.042 27.0302 278.55C27.0302 278.058 26.1052 277.799 24.9752 277.974C23.3922 278.22 21.4152 281.629 16.3782 292.794C9.36915 308.328 8.03015 310.584 8.03015 306.857C8.03015 305.571 7.07115 298.506 5.89915 291.157C4.04615 279.532 3.52615 277.794 1.89915 277.794C0.871152 277.794 0.0171535 278.131 0.000153483 278.544ZM32.0302 278.576C32.0302 279.005 30.6852 286.993 29.0422 296.326C27.3982 305.658 26.0482 313.857 26.0422 314.544C26.0332 315.475 29.0902 315.794 38.0302 315.794C49.3632 315.794 50.0302 315.683 50.0302 313.794C50.0302 311.933 49.3632 311.794 40.4162 311.794H30.8032L31.4732 307.044C32.6792 298.502 32.1902 298.902 41.8352 298.582C49.6532 298.323 50.5592 298.092 50.8182 296.294C51.0862 294.432 50.5352 294.294 42.8182 294.294H34.5302L34.8551 289.306C35.3231 282.124 36.0171 281.639 45.4511 281.894C53.0431 282.099 53.5492 281.982 53.8502 279.953C54.1612 277.852 53.8732 277.794 43.1002 277.794C37.0112 277.794 32.0302 278.146 32.0302 278.576ZM59.0302 279.794C59.0302 281.498 59.6972 281.794 63.5302 281.794C69.0172 281.794 68.9452 281.131 65.5262 300.242C62.5392 316.934 62.5802 315.794 64.9632 315.794C67.3191 315.794 67.3302 315.758 70.4832 297.846C71.8812 289.9 73.3642 283.066 73.7782 282.659C74.1922 282.253 76.5511 281.779 79.0211 281.607C82.3511 281.375 83.5992 280.841 83.8452 279.544C84.1472 277.953 83.0381 277.794 71.6031 277.794C59.6971 277.794 59.0302 277.9 59.0302 279.794ZM88.5782 280.044C88.3082 281.281 86.9452 288.819 85.5482 296.794C84.1512 304.769 82.7792 312.307 82.5002 313.544C81.9952 315.78 82.0671 315.794 93.9041 315.794C103.844 315.794 105.917 315.532 106.423 314.212C106.757 313.342 107.03 312.442 107.03 312.212C107.03 311.982 102.593 311.794 97.1702 311.794H87.3092L88.4252 305.544L89.5412 299.294L98.2852 299.005C105.156 298.778 107.03 298.403 107.03 297.255C107.03 296.451 107.028 295.502 107.026 295.146C107.024 294.79 103.358 294.595 98.8802 294.714L90.7392 294.929L91.4091 289.226C91.7781 286.09 92.3472 283.091 92.6732 282.562C93.0072 282.023 97.0512 281.753 101.899 281.948C110.209 282.281 110.542 282.21 110.85 280.044C111.164 277.827 111.006 277.794 100.119 277.794C89.4712 277.794 89.0502 277.876 88.5782 280.044ZM118.029 278.447C118.029 278.913 116.679 286.944 115.03 296.294C111.48 316.42 111.514 315.794 113.963 315.794C116.105 315.794 116.331 315.228 118.055 305.544C119.219 299.006 119.349 298.794 122.209 298.794C127.1 298.794 128.683 300.399 131.554 308.27C133.943 314.822 134.612 315.794 136.731 315.794C139.57 315.794 139.441 314.993 135.025 305.172L132.271 299.049L135.493 297.513C141.857 294.478 143.8 284.613 138.907 280.181C137.249 278.679 134.906 278.223 127.427 277.947C122.259 277.757 118.03 277.982 118.029 278.447ZM147.619 294.044C146.019 302.982 144.505 311.531 144.256 313.044C143.885 315.296 144.174 315.794 145.849 315.794C148.339 315.794 148.31 315.889 151.492 297.294C152.904 289.044 154.287 281.281 154.564 280.044C154.972 278.224 154.635 277.794 152.799 277.794C150.653 277.795 150.372 278.675 147.619 294.044ZM162.69 278.544C162.217 279.318 156.03 312.983 156.03 314.784C156.03 315.339 156.93 315.794 158.03 315.794C159.13 315.794 160.03 315.648 160.03 315.469C160.03 315.29 160.928 310.003 162.027 303.719C163.125 297.435 164.294 290.719 164.626 288.794C165.192 285.509 165.468 285.969 169.124 296.294C176.142 316.118 175.988 315.794 178.448 315.794C180.588 315.794 180.859 314.875 183.865 297.476C185.606 287.401 187.03 278.851 187.03 278.476C187.03 278.101 186.166 277.794 185.109 277.794C182.949 277.794 183.057 277.417 179.954 295.794C178.793 302.669 177.732 308.409 177.597 308.55C177.461 308.691 176.777 306.891 176.077 304.55C175.376 302.209 173.007 295.232 170.813 289.044C167.69 280.242 166.422 277.794 164.985 277.794C163.975 277.794 162.942 278.131 162.69 278.544ZM193.986 295.914C189.335 305.932 185.38 314.503 185.197 314.961C185.013 315.419 185.94 315.794 187.256 315.794C189.165 315.794 190.141 314.734 192.089 310.544L194.53 305.294L200.437 304.989C206.871 304.658 207.988 305.391 208.015 309.962C208.038 314.079 209.042 315.794 211.427 315.794H213.611L211.798 304.544C207.369 277.061 207.695 278.323 204.946 277.997C202.609 277.721 201.877 278.916 193.986 295.914ZM223.96 277.947C223.922 278.138 222.435 286.732 220.657 297.044L217.424 315.794H219.605C221.562 315.794 221.914 314.966 223.043 307.711C224.407 298.939 225.049 298.2 230.425 299.208C233.278 299.744 234.121 300.578 235.836 304.568C236.954 307.167 238.188 310.568 238.578 312.125C239.32 315.084 240.86 316.193 243.444 315.629C244.714 315.351 244.411 313.899 241.662 307.099L238.349 298.905L241.141 297.748C242.676 297.112 244.629 295.528 245.481 294.228C247.674 290.881 247.479 283.571 245.119 280.655C243.395 278.525 242.273 278.26 233.619 277.947C228.345 277.757 223.999 277.757 223.96 277.947ZM256.029 278.044C256.029 278.182 254.679 285.944 253.03 295.294C249.453 315.572 249.442 315.794 252.03 315.794C253.13 315.794 254.03 315.457 254.031 315.044C254.032 314.631 255.382 306.488 257.031 296.947C258.68 287.406 260.03 279.194 260.03 278.697C260.03 278.2 259.13 277.794 258.03 277.794C256.93 277.794 256.03 277.906 256.029 278.044ZM272.001 280.044C262.764 286.296 260.485 304.717 267.959 312.718C274.204 319.404 285.236 316.736 289.971 307.394C292.871 301.672 293.858 291.832 292.073 286.426C289.369 278.231 279.375 275.054 272.001 280.044ZM135.096 282.829C137.775 284.263 137.644 289.511 134.856 292.48C133.02 294.434 131.68 294.794 126.244 294.794H119.807L120.453 291.044C122.166 281.091 121.617 281.794 127.675 281.794C130.693 281.794 134.032 282.26 135.096 282.829ZM241.459 283.365C243.683 285.589 243.406 289.764 240.856 292.48C239.003 294.451 237.691 294.794 231.992 294.794H225.303L226.209 289.544C226.707 286.656 227.307 283.732 227.541 283.044C228.194 281.13 239.484 281.391 241.459 283.365ZM286.845 285.794C288.898 288.814 289.159 290.145 288.745 295.505C288.144 303.303 285.444 308.623 280.888 310.988C273.843 314.644 268.024 309.713 268.036 300.094C268.044 293.218 269.785 287.885 273.106 284.564C275.532 282.138 276.669 281.726 280.229 281.986C283.788 282.245 284.845 282.853 286.845 285.794ZM206.474 297.044L207.054 300.794H201.974C196.103 300.794 196.127 301.177 201.294 290.01L204.4 283.294L205.148 288.294C205.559 291.044 206.156 294.982 206.474 297.044Z" fill="#FFF2F2"/>
<path d="M365.632 21.9416C366.542 20.6476 368.691 18.9466 370.408 18.1616C374.473 16.3016 385.494 16.9766 397.53 19.8206C409.602 22.6746 424.049 22.2636 431.81 18.8466C434.715 17.5676 437.255 16.6946 437.455 16.9076C438.013 17.5006 435.256 37.7746 434.002 42.2936C431.779 50.3116 431.811 50.3016 418.369 47.2206C403.221 43.7506 383.435 42.9366 368.047 45.1526C362.282 45.9826 357.424 46.5205 357.252 46.3485C356.635 45.7325 364.014 24.2436 365.632 21.9416Z" fill="#EE2A2C"/>
<path d="M331.844 73.7156C340.46 66.1136 355.741 59.8475 370.53 57.8525C379.332 56.6655 396.959 57.3326 407.918 59.2676C417.11 60.8906 428.131 63.5616 428.929 64.3596C429.573 65.0036 422.805 100.375 413.86 143.108C403.846 190.948 404.192 188.699 406.559 190.484C408.063 191.617 410.072 191.82 415.03 191.339C437.88 189.124 441.512 189.497 448.724 194.8C460.334 203.338 466.564 222.899 464.07 242.974C460.301 273.306 446.851 298.118 427.238 310.921C414.959 318.937 401.274 322.794 385.113 322.794C376.046 322.794 362.295 321.194 360.191 319.894C359.399 319.404 359.98 316.995 362.12 311.903C363.804 307.893 364.986 304.417 364.747 304.177C364.507 303.938 362.122 305.551 359.446 307.762C347.738 317.437 333.928 322.25 319.775 321.587C310.194 321.139 306.337 319.354 304.636 314.582C302.997 309.981 304.643 306.84 309.817 304.696C323.831 298.888 330.884 292.94 338.046 280.884C346.589 266.505 353.247 243.278 357.375 213.464L359.699 196.676L365.115 192.052C374.065 184.41 381.766 176.248 385.341 170.614C391.401 161.065 394.767 148.554 388.889 157.426C384.791 163.611 373.032 174.89 365.267 180.082C351.603 189.218 341.289 192.34 332.651 189.955C329.034 188.956 328.592 189.078 325.83 191.841C318.789 198.881 311.03 192.239 311.03 179.17C311.03 176.894 309.813 171.941 308.325 168.163C305.883 161.96 305.625 160.082 305.668 148.794C305.792 115.7 315.357 88.2635 331.844 73.7156Z" fill="#EE2A2C"/>
<path d="M704.432 83.1765C707.03 77.5975 712.177 73.0116 717.294 71.7166C721.736 70.5926 728.751 71.4455 732.339 73.5465C737.662 76.6645 739.459 80.1506 739.862 88.1446C740.378 98.3586 738.108 102.733 726.344 114.183C721.221 119.169 717.03 123.5 717.03 123.808C717.03 124.116 721.351 124.192 726.632 123.977L736.235 123.586L735.686 126.44C735.384 128.01 734.848 131.207 734.496 133.544L733.854 137.794H716.524C706.992 137.794 698.482 138.067 697.612 138.401C695.685 139.141 695.568 137.048 697.13 129.764C698.149 125.013 699.147 123.741 710.699 112.471C717.557 105.78 724.037 98.8995 725.099 97.1815C727.907 92.6395 727.634 88.2356 724.415 86.1266C722.077 84.5946 721.523 84.5676 719.189 85.8776C717.01 87.1016 715.951 88.5086 713.359 93.6306C713.265 93.8166 710.678 93.4475 707.609 92.8095C701.122 91.4635 700.894 90.7745 704.432 83.1765Z" fill="#EE2A2C"/>
<path d="M791.487 122.294C793.74 106.979 799.06 74.4485 799.54 73.0435C799.818 72.2285 802.068 71.7935 805.999 71.7935C813.041 71.7935 812.75 70.8675 810.163 85.0685L808.383 94.8435L811.456 91.8806C819.802 83.8326 830.403 86.4886 831.98 97.0236C832.584 101.06 832.008 106.999 828.926 128.462L827.61 137.63L823.57 138.149C817.19 138.968 814.502 138.373 814.714 136.189C814.815 135.147 815.909 128.089 817.144 120.506C820.047 102.682 819.042 99.3185 811.385 101.241C807.829 102.134 806.365 106.462 804.042 122.957C802.935 130.812 802.03 137.364 802.03 137.517C802.03 137.669 799.069 137.794 795.451 137.794H788.871L789.443 135.044C789.758 133.532 790.677 127.794 791.487 122.294Z" fill="#EE2A2C"/>
<path fill-rule="evenodd" clip-rule="evenodd" d="M769.356 72.5945C767.758 72.8285 764.415 77.3415 756.756 89.6035C751.022 98.7825 745.788 107.324 745.125 108.582C744.089 110.548 741.03 124.217 741.03 126.882C741.03 127.384 746.644 127.794 753.505 127.794H765.98L765.442 131.044C765.145 132.832 764.744 135.101 764.549 136.088C764.232 137.692 764.901 137.85 770.862 137.588L777.53 137.294L778.03 132.794C778.495 128.605 778.747 128.273 781.675 127.988C784.6 127.704 784.866 127.355 785.482 122.988C785.846 120.407 786.374 117.506 786.654 116.544C787.062 115.147 786.546 114.794 784.097 114.794C782.41 114.794 781.03 114.375 781.03 113.864C781.03 113.352 782.38 104.321 784.03 93.7935C785.68 83.2665 787.03 73.9825 787.03 73.1605C787.03 71.9385 785.624 71.7225 779.28 71.9715C775.017 72.1385 770.552 72.4195 769.356 72.5945ZM768.854 109.044C769.451 105.881 770.464 99.5605 771.106 94.9985C771.748 90.4365 772.089 86.5195 771.864 86.2935C771.393 85.8235 771.025 86.3846 761.845 101.563C758.097 107.761 755.03 113.273 755.03 113.813C755.03 114.352 757.896 114.794 761.4 114.794H767.77L768.854 109.044Z" fill="#EE2A2C"/>
</svg>