<svg width="161" height="306" viewBox="0 0 161 306" fill="none" xmlns="http://www.w3.org/2000/svg">
<path d="M61.6056 5.066C62.5156 3.772 64.6646 2.071 66.3816 1.286C70.4466 -0.573997 81.4676 0.100999 93.5036 2.945C105.576 5.799 120.023 5.388 127.784 1.971C130.689 0.692 133.229 -0.180995 133.429 0.0320051C133.987 0.625005 131.23 20.899 129.976 25.418C127.753 33.436 127.785 33.426 114.343 30.345C99.1946 26.875 79.4086 26.061 64.0206 28.277C58.2556 29.107 53.3976 29.645 53.2256 29.473C52.6086 28.857 59.9876 7.368 61.6056 5.066Z" fill="#EE2A2C"/>
<path d="M27.8176 56.84C36.4336 49.238 51.7146 42.972 66.5036 40.977C75.3056 39.79 92.9326 40.457 103.892 42.392C113.084 44.015 124.105 46.686 124.903 47.484C125.547 48.128 118.779 83.499 109.834 126.232C99.8196 174.072 100.166 171.823 102.533 173.608C104.037 174.741 106.046 174.944 111.004 174.463C133.854 172.248 137.486 172.621 144.698 177.924C156.308 186.462 162.538 206.023 160.044 226.098C156.275 256.43 142.825 281.242 123.212 294.045C110.933 302.061 97.2476 305.918 81.0866 305.918C72.0196 305.918 58.2686 304.318 56.1646 303.018C55.3726 302.528 55.9536 300.119 58.0936 295.027C59.7776 291.017 60.9596 287.541 60.7206 287.301C60.4806 287.062 58.0956 288.675 55.4196 290.886C43.7116 300.561 29.9016 305.374 15.7486 304.711C6.1676 304.263 2.31059 302.478 0.609594 297.706C-1.02941 293.105 0.616594 289.964 5.79059 287.82C19.8046 282.012 26.8576 276.064 34.0196 264.008C42.5626 249.629 49.2206 226.402 53.3486 196.588L55.6726 179.8L61.0886 175.176C70.0386 167.534 77.7396 159.372 81.3146 153.738C87.3746 144.189 90.7406 131.678 84.8626 140.55C80.7646 146.735 69.0056 158.014 61.2406 163.206C47.5766 172.342 37.2626 175.464 28.6246 173.079C25.0076 172.08 24.5656 172.202 21.8036 174.965C14.7626 182.005 7.00361 175.363 7.00361 162.294C7.00361 160.018 5.78662 155.065 4.29862 151.287C1.85662 145.084 1.59861 143.206 1.64161 131.918C1.76561 98.824 11.3306 71.388 27.8176 56.84Z" fill="#EE2A2C"/>
</svg>
